<svg xmlns="http://www.w3.org/2000/svg" xmlns:xlink="http://www.w3.org/1999/xlink" width="163" height="163" viewBox="0 0 163 163">
  <defs>
    <filter id="Ellipse_3" x="0" y="0" width="163" height="163" filterUnits="userSpaceOnUse">
      <feOffset dy="10" input="SourceAlpha"/>
      <feGaussianBlur stdDeviation="10" result="blur"/>
      <feFlood flood-opacity="0.161"/>
      <feComposite operator="in" in2="blur"/>
      <feComposite in="SourceGraphic"/>
    </filter>
  </defs>
  <g id="Group_30" data-name="Group 30" transform="translate(-1033 -877)">
    <g transform="matrix(1, 0, 0, 1, 1033, 877)" filter="url(#Ellipse_3)">
      <circle id="Ellipse_3-2" data-name="Ellipse 3" cx="51.5" cy="51.5" r="51.5" transform="translate(30 20)" fill="#fff"/>
    </g>
    <g id="wiping" transform="translate(1087.732 925.16)">
      <path id="Path_14" data-name="Path 14" d="M34.847,68.474a27.943,27.943,0,0,0-4.635-2.549,31.21,31.21,0,0,0-9.473-2.235,18.245,18.245,0,0,1-5.583-1.208L8.122,54.9.1,68.262l6.76,5.56a78.788,78.788,0,0,0,5.787,5.638v4.7H6.366v3.137h6.273V96.7H6.366v3.137H39.521A14.125,14.125,0,0,0,53.628,85.726V68.474ZM8.663,60.091,12.2,63.9,7.628,70.388l-3.45-2.839ZM9.949,72.536l4.807-6.83a24.478,24.478,0,0,0,5.615,1.1c5.3.619,11.308,1.317,19.769,10.477l3.019,3.27a5.245,5.245,0,0,1-5.5-.808A24.79,24.79,0,0,0,27.389,74.12,9.184,9.184,0,0,0,23.116,74l.87,3.011a.124.124,0,0,0-.031.008,7.067,7.067,0,0,1,3.027.22,16.761,16.761,0,0,1,4.125,1.71,13.138,13.138,0,0,1-15.48-1.027C13.651,76.214,11.737,74.4,9.949,72.536ZM41.019,96.6A10.819,10.819,0,0,0,44.1,90.337a10.968,10.968,0,0,0,6.281-3.105A10.988,10.988,0,0,1,41.019,96.6Zm1.608-9.308H41.05l.008,1.576a7.818,7.818,0,0,1-7.826,7.842H15.776V81.868a16.19,16.19,0,0,0,8.32,2.29h.243A15.99,15.99,0,0,0,33.945,80.8c.541.4,1.106.847,1.686,1.341a8.4,8.4,0,0,0,5.513,2,8.123,8.123,0,0,0,5.466-2.164l1.153-1.066-5.317-5.764c-1.2-1.3-2.4-2.478-3.592-3.545H50.484v7.842A7.855,7.855,0,0,1,42.626,87.295Z" transform="translate(-0.092 -54.9)" fill="#3b3b3d"/>
      <rect id="Rectangle_16" data-name="Rectangle 16" width="3.137" height="3.137" transform="translate(0 41.805)" fill="#3b3b3d"/>
      <rect id="Rectangle_17" data-name="Rectangle 17" width="9.41" height="3.137" transform="translate(0 35.531)" fill="#3b3b3d"/>
      <rect id="Rectangle_18" data-name="Rectangle 18" width="3.137" height="3.137" transform="translate(0 29.258)" fill="#3b3b3d"/>
    </g>
  </g>
</svg>
