<svg xmlns="http://www.w3.org/2000/svg" xmlns:xlink="http://www.w3.org/1999/xlink" width="163" height="163" viewBox="0 0 163 163">
  <defs>
    <filter id="Ellipse_2" x="0" y="0" width="163" height="163" filterUnits="userSpaceOnUse">
      <feOffset dy="10" input="SourceAlpha"/>
      <feGaussianBlur stdDeviation="10" result="blur"/>
      <feFlood flood-opacity="0.161"/>
      <feComposite operator="in" in2="blur"/>
      <feComposite in="SourceGraphic"/>
    </filter>
  </defs>
  <g id="Group_29" data-name="Group 29" transform="translate(-724 -877)">
    <g transform="matrix(1, 0, 0, 1, 724, 877)" filter="url(#Ellipse_2)">
      <circle id="Ellipse_2-2" data-name="Ellipse 2" cx="51.5" cy="51.5" r="51.5" transform="translate(30 20)" fill="#fff"/>
    </g>
    <path id="XMLID_388_" d="M50.821,15.287l-4.846,9.556A35.952,35.952,0,0,0,28.322,20,35.952,35.952,0,0,0,10.67,24.843L5.824,15.287,0,26.772V68.541H56.645V26.772Zm1.451,10.219h-2.9l1.452-2.863ZM48.324,51.24h4.993v3.8H48.324ZM45,28.116v3.6C40.174,28.991,34.8,26.76,28.38,26.76c-6.51,0-11.9,2.232-16.732,4.954v-3.6C22.575,21.756,34.069,21.756,45,28.116ZM7.276,25.506h-2.9l1.452-2.863ZM3.327,28.834H8.321V47.912H3.327ZM8.321,51.24v3.8H3.327v-3.8ZM3.327,65.214V58.363H14.835v6.851Zm14.835-6.851h8.554v6.851H18.162ZM38.6,55.036H35.113V51.466a1.742,1.742,0,0,1,3.484,0Zm-6.811,0H24.973V44.765a3.406,3.406,0,1,1,6.812,0Zm-10.14,0H18.162V51.466a1.742,1.742,0,0,1,3.484,0Zm8.4,10.178V58.363H38.6v6.851Zm23.274,0H41.925V58.363H53.318ZM41.925,55.036V51.466a5.07,5.07,0,0,0-6.811-4.761v-1.94a6.733,6.733,0,1,0-13.467,0v1.94a5.07,5.07,0,0,0-6.811,4.761v3.57H11.648V35.563c4.851-2.9,10.241-5.476,16.732-5.476,6.081,0,11.093,2.17,16.617,5.476V55.036H41.925Zm6.4-7.124V28.834h4.993V47.912H48.324Z" transform="translate(777.178 905.814)" fill="#3b3b3d"/>
  </g>
</svg>
