<svg xmlns="http://www.w3.org/2000/svg" width="77.213" height="28" viewBox="0 0 77.213 28">
  <g id="Group_23" data-name="Group 23" transform="translate(-916.5 -5887)">
    <path id="Icon_ionic-logo-facebook" data-name="Icon ionic-logo-facebook" d="M30.009,4.5H5.991A1.491,1.491,0,0,0,4.5,5.991V30.009A1.491,1.491,0,0,0,5.991,31.5H18V20.813H14.773V16.875H18V13.964c0-3.488,2.419-5.386,5.534-5.386,1.491,0,3.094.113,3.466.162v3.642H24.518c-1.695,0-2.018.8-2.018,1.983v2.51h4.036l-.527,3.938H22.5V31.5h7.509A1.491,1.491,0,0,0,31.5,30.009V5.991A1.491,1.491,0,0,0,30.009,4.5Z" transform="translate(912 5883.5)" fill="#38b6ff"/>
    <g id="Icon_feather-instagram" data-name="Icon feather-instagram" transform="translate(964.787 5885.5)">
      <path id="Path_2" data-name="Path 2" d="M9.106,3H21.319a6.106,6.106,0,0,1,6.106,6.106V21.319a6.106,6.106,0,0,1-6.106,6.106H9.106A6.106,6.106,0,0,1,3,21.319V9.106A6.106,6.106,0,0,1,9.106,3Z" fill="none" stroke="#38b6ff" stroke-linecap="round" stroke-linejoin="round" stroke-width="3"/>
      <path id="Path_3" data-name="Path 3" d="M21.782,16.1a4.885,4.885,0,1,1-4.116-4.116A4.885,4.885,0,0,1,21.782,16.1Z" transform="translate(-1.684 -1.66)" fill="none" stroke="#38b6ff" stroke-linecap="round" stroke-linejoin="round" stroke-width="3"/>
      <path id="Path_4" data-name="Path 4" d="M26.25,9.75h0" transform="translate(-4.32 -1.254)" fill="none" stroke="#38b6ff" stroke-linecap="round" stroke-linejoin="round" stroke-width="3"/>
    </g>
  </g>
</svg>
