<svg xmlns="http://www.w3.org/2000/svg" width="34.875" height="34.875" viewBox="0 0 34.875 34.875">
  <path id="Icon_awesome-arrow-circle-left" data-name="Icon awesome-arrow-circle-left" d="M18,35.438A17.438,17.438,0,1,0,.563,18,17.434,17.434,0,0,0,18,35.438Zm-2.032-10.1,5.309-5.091H8.438A1.683,1.683,0,0,1,6.75,18.563V17.438A1.683,1.683,0,0,1,8.438,15.75H21.277l-5.309-5.091a1.689,1.689,0,0,1-.028-2.412l.773-.766a1.681,1.681,0,0,1,2.384,0l9.33,9.323a1.681,1.681,0,0,1,0,2.384l-9.33,9.33a1.681,1.681,0,0,1-2.384,0l-.773-.766A1.689,1.689,0,0,1,15.968,25.341Z" transform="translate(-0.563 -0.563)" fill="#3b3b3d"/>
</svg>
